<?xml version="1.0" standalone="no"?>
<!DOCTYPE svg PUBLIC "-//W3C//DTD SVG 20010904//EN"
 "http://www.w3.org/TR/2001/REC-SVG-20010904/DTD/svg10.dtd">
<svg version="1.0" xmlns="http://www.w3.org/2000/svg"
 width="2048.000000pt" height="2048.000000pt" viewBox="0 0 2048.000000 2048.000000"
 preserveAspectRatio="xMidYMid meet">
<metadata>
Created by potrace 1.16, written by Peter Selinger 2001-2019
</metadata>
<g transform="translate(0.000000,2048.000000) scale(0.100000,-0.100000)"
fill="#000000" stroke="none">
<path d="M0 10240 l0 -10240 10240 0 10240 0 0 10240 0 10240 -10240 0 -10240
0 0 -10240z m10624 5940 c1099 -64 2169 -440 3056 -1073 511 -365 823 -660
1226 -1157 457 -565 830 -1273 1028 -1951 268 -920 324 -1786 175 -2694 -125
-759 -389 -1465 -796 -2124 -427 -691 -1074 -1358 -1763 -1818 -840 -560
-1779 -890 -2775 -975 -190 -16 -725 -16 -915 0 -586 51 -1136 168 -1607 343
-882 329 -1651 845 -2298 1545 -669 725 -1135 1569 -1385 2514 -126 476 -183
934 -183 1475 0 633 80 1172 261 1770 203 668 564 1348 1015 1913 532 666
1219 1226 1967 1606 934 474 1949 687 2994 626z"/>
<path d="M10136 15020 c-22 -73 -33 -235 -17 -254 10 -12 30 -187 31 -268 0
-32 17 -37 28 -8 7 18 9 19 37 4 31 -16 110 -16 110 1 0 6 4 15 8 21 8 14 2
292 -8 317 -10 25 -60 22 -79 -5 -21 -29 -23 -208 -3 -209 15 -1 -22 -17 -42
-18 -10 -1 -11 3 -3 12 5 6 11 73 13 147 3 115 0 147 -19 215 -12 43 -26 83
-31 88 -6 6 -16 -12 -25 -43z"/>
<path d="M10201 14461 c-49 -9 -71 -31 -71 -72 0 -37 42 -69 89 -69 20 0 43
-5 51 -10 11 -7 1 -10 -35 -10 -59 0 -95 -21 -95 -55 0 -13 -9 -33 -21 -44
-21 -19 -20 -19 110 -20 110 -1 132 1 137 14 9 22 -15 76 -44 101 l-25 22 24
7 c39 12 59 36 59 70 0 56 -75 84 -179 66z"/>
<path d="M10225 14160 c-113 -5 -148 -11 -181 -28 -51 -26 -66 -45 -62 -74 3
-22 8 -23 83 -25 103 -3 398 -22 450 -29 31 -4 36 -3 23 6 -12 7 -16 19 -12
38 10 49 -50 104 -126 114 -19 3 -98 2 -175 -2z"/>
<path d="M10055 13978 c-115 -11 -192 -46 -274 -124 -75 -70 -81 -90 -48 -146
38 -65 142 -148 166 -134 5 3 11 -1 15 -9 8 -23 40 -18 66 10 28 30 40 32 40
6 0 -18 3 -18 53 -7 29 7 59 16 67 21 9 6 11 4 5 -5 -6 -10 -4 -11 11 -6 46
19 57 19 73 -3 14 -18 23 -21 45 -15 15 3 30 13 33 20 7 20 40 17 79 -6 34
-22 58 -27 162 -37 38 -4 62 -2 62 4 0 6 29 29 63 51 61 39 101 85 128 144 10
23 8 32 -15 72 -26 45 -100 108 -164 140 -66 34 -352 46 -567 24z m483 -102
c58 -15 142 -51 142 -61 0 -2 -19 3 -42 11 -120 43 -389 66 -518 44 -41 -7
-97 -16 -125 -19 -27 -4 -61 -13 -74 -20 -18 -10 -22 -10 -16 0 6 9 3 10 -10
6 -39 -16 -106 -29 -112 -23 -4 3 1 6 10 6 8 0 51 14 94 32 43 17 105 35 138
39 101 13 442 3 513 -15z"/>
<path d="M10075 13523 c-111 -6 -390 -33 -420 -41 -28 -8 -32 -18 -98 -208
-129 -375 -224 -718 -266 -954 -11 -63 -41 -214 -66 -335 -57 -277 -124 -761
-113 -821 2 -13 -4 -20 -19 -22 -21 -3 -23 -9 -23 -66 0 -91 -12 -216 -20
-216 -4 0 -11 17 -15 38 l-8 37 -10 -30 c-5 -16 -14 -33 -19 -36 -5 -3 -10
-45 -11 -93 -2 -76 -4 -87 -22 -92 -11 -4 -25 -14 -31 -22 -12 -17 -34 -8 -34
13 0 7 9 16 19 20 22 7 23 10 41 103 7 34 17 65 21 68 5 3 9 14 9 24 0 11 11
54 25 96 14 42 25 96 25 120 0 32 5 46 18 53 16 8 20 32 31 148 20 227 83 620
136 847 9 37 15 69 13 71 -26 20 -46 21 -100 4 -81 -24 -89 -32 -86 -88 3 -46
3 -46 38 -44 l35 2 -35 -10 c-66 -20 -73 -39 -43 -122 14 -39 15 -52 5 -67
-18 -29 -15 -40 11 -40 12 0 28 -4 35 -9 13 -8 -16 -15 -150 -36 -40 -6 -69
-36 -61 -63 2 -9 15 -30 27 -45 20 -24 31 -29 75 -30 28 -1 51 -5 51 -9 0 -5
-6 -8 -12 -9 -81 -4 -145 -18 -157 -33 -12 -14 -75 -244 -101 -366 -16 -76
-21 -153 -26 -387 -4 -161 -10 -293 -14 -293 -30 0 -25 476 6 646 4 20 0 44
-11 63 -26 52 -37 28 -30 -65 4 -47 4 -84 -1 -83 -32 6 -40 -2 -36 -33 3 -19
1 -29 -4 -25 -5 5 -9 12 -10 15 0 4 -4 15 -9 25 -6 14 -12 9 -32 -29 -29 -54
-20 -68 35 -60 24 4 32 1 32 -10 0 -11 -8 -13 -33 -9 -21 4 -48 1 -70 -9 -37
-15 -37 -15 -37 -78 -1 -36 -7 -74 -15 -88 -8 -14 -14 -52 -15 -88 0 -61 1
-63 30 -73 49 -18 35 -28 -42 -31 l-73 -3 -9 -247 -9 -248 -38 0 -37 0 -7 78
c-5 70 -26 157 -59 252 -11 32 -16 35 -50 36 l-39 0 -21 75 c-12 41 -40 108
-62 149 -48 87 -92 124 -137 114 l-29 -6 17 26 c9 14 24 28 34 31 9 3 25 19
35 35 17 30 17 32 -1 63 -11 18 -40 46 -66 63 -25 17 -58 43 -71 57 -14 15
-35 27 -48 28 l-23 0 22 9 c49 20 56 78 14 120 -25 26 -27 31 -14 42 13 10 14
30 9 115 -7 118 -11 133 -36 133 -15 0 -19 -16 -30 -114 -8 -74 -9 -120 -3
-131 8 -13 4 -23 -14 -41 -39 -39 -29 -98 21 -119 l30 -13 -43 -13 c-26 -8
-46 -20 -49 -31 -2 -9 -13 -20 -23 -23 -30 -10 -129 -95 -129 -111 0 -9 14
-29 30 -46 17 -16 30 -34 30 -39 0 -6 9 -8 19 -4 11 3 22 1 26 -5 3 -5 34 -11
68 -11 121 -3 127 -17 7 -19 -63 -1 -123 -1 -134 0 -44 4 -71 -20 -101 -88
-15 -37 -38 -76 -51 -87 -23 -21 -97 -203 -110 -269 -4 -22 -18 -49 -30 -61
-21 -20 -24 -31 -24 -95 l0 -73 -60 6 -61 7 3 -78 3 -77 -67 -3 c-38 -2 -68
-7 -68 -11 0 -5 11 -33 24 -62 39 -88 58 -244 27 -225 -5 4 -31 2 -58 -3 -26
-6 -69 -13 -95 -16 l-48 -6 64 -77 c91 -111 146 -196 146 -225 0 -14 -5 -38
-10 -53 -8 -19 -7 -31 2 -42 10 -11 12 -67 10 -226 -2 -116 -5 -219 -8 -228
-3 -10 -14 -18 -25 -18 -28 0 -24 -36 6 -56 l25 -17 -2 -206 -3 -206 -27 -3
c-22 -3 -28 -9 -28 -27 0 -13 5 -27 10 -30 14 -9 12 -61 -2 -73 -7 -6 -30 -13
-50 -17 l-38 -7 0 -128 c0 -70 -3 -161 -6 -203 l-7 -77 -32 0 -32 0 -7 -102
c-3 -57 -9 -124 -12 -150 l-7 -48 3421 0 3420 0 -5 38 c-2 20 -10 87 -16 147
l-12 110 -37 3 -38 3 0 203 0 202 -47 15 c-45 14 -48 17 -51 53 -2 21 1 43 7
49 19 19 12 37 -14 37 -14 0 -27 6 -30 13 -2 6 -6 100 -8 208 l-4 197 28 27
c31 29 30 41 -6 55 -22 8 -22 12 -28 222 -5 202 -4 215 15 241 l20 29 -22 15
c-46 33 -16 91 142 274 37 43 64 80 60 82 -4 3 -51 8 -104 12 l-98 7 0 51 c1
74 17 134 50 188 16 26 26 50 23 53 -4 3 -36 6 -73 6 l-66 0 1 83 0 82 -42 -3
c-48 -4 -48 -4 -58 111 -7 75 -16 92 -41 67 -7 -7 -19 23 -37 88 -46 163 -141
345 -201 381 -18 12 -44 22 -57 22 -19 1 -20 2 -6 6 12 3 17 11 14 23 -3 12 5
25 24 39 42 31 38 62 -13 103 -24 18 -60 49 -80 69 -31 30 -47 37 -94 42 -59
6 -78 1 -116 -34 -88 -78 -138 -129 -138 -139 0 -7 14 -29 32 -49 26 -30 42
-38 92 -47 l61 -12 -63 -1 c-73 -1 -116 -17 -154 -57 -32 -34 -112 -199 -128
-265 l-12 -47 -38 5 -39 5 -15 -53 c-14 -45 -34 -138 -62 -287 -4 -19 -9 -21
-32 -16 -15 4 -30 8 -33 10 -3 2 -9 90 -13 196 -5 106 -11 216 -15 243 l-6 50
-52 5 c-60 6 -76 16 -41 25 22 6 26 13 31 63 5 48 3 60 -13 78 -16 16 -20 35
-20 85 -1 40 -6 71 -15 83 -8 11 -15 28 -15 38 0 19 -17 53 -37 75 -29 32 -83
-6 -83 -59 0 -17 -3 -29 -6 -25 -3 3 -8 67 -10 143 -2 76 -8 142 -13 147 -18
18 -41 -1 -42 -35 0 -22 -11 5 -33 82 -77 270 -96 310 -154 310 -23 0 -23 1 7
31 17 17 31 40 31 53 0 50 -65 96 -137 96 -21 0 -45 5 -53 10 -12 8 -9 10 12
10 31 0 47 35 30 67 -7 13 -6 26 4 43 20 37 17 68 -10 95 -18 18 -21 25 -10
29 8 3 14 20 14 42 0 29 -7 43 -39 73 -38 35 -39 38 -45 126 -13 180 -73 138
-75 -52 -1 -32 4 -53 12 -57 6 -3 -4 -4 -22 -3 l-35 2 -32 115 c-18 63 -57
210 -88 325 -83 312 -248 799 -277 815 -8 5 -55 13 -104 19 -98 12 -485 34
-491 28 -10 -10 28 -106 44 -110 10 -3 7 -5 -10 -6 -31 -1 -37 6 -53 68 -11
45 -12 46 -51 46 l-39 0 -14 -57 c-12 -48 -19 -57 -40 -61 -36 -7 -38 -1 -9
31 14 15 33 42 42 60 16 32 16 32 -6 30 -13 -1 -50 -3 -83 -5z m-113 -115
c-27 -30 -38 -59 -78 -213 -19 -71 -31 -110 -28 -85 6 47 55 241 69 274 7 15
5 17 -11 12 -11 -3 -50 -7 -87 -8 l-67 -3 -54 -170 c-190 -596 -266 -931 -345
-1525 -16 -124 -34 -274 -40 -335 -6 -60 -14 -131 -17 -157 l-6 -48 -41 1
c-23 1 -34 3 -24 6 9 2 17 8 17 12 0 42 38 365 65 556 79 554 195 1042 357
1500 l63 180 104 7 c56 4 106 9 109 12 3 3 12 6 20 6 12 0 11 -5 -6 -22z m765
12 c64 0 58 10 146 -245 185 -540 297 -1086 352 -1720 19 -213 19 -245 1 -245
-10 0 -15 27 -20 108 -29 471 -139 1102 -272 1567 -60 207 -154 493 -167 503
-7 5 -74 13 -150 17 -75 4 -140 12 -143 17 -5 7 27 9 97 5 57 -4 128 -7 156
-7z m-387 -799 c31 -16 78 -60 91 -83 8 -14 2 -13 -25 6 -32 22 -41 23 -161
19 -173 -5 -212 -24 -230 -110 -6 -33 -6 -33 27 -27 18 3 39 7 46 10 15 4 17
9 -17 -58 -45 -88 -114 -405 -133 -608 -6 -63 -21 -149 -34 -190 -13 -41 -21
-59 -19 -40 3 19 10 89 15 155 6 66 28 209 50 317 22 109 40 203 39 210 -3 60
-82 -302 -113 -522 -14 -96 -37 -229 -50 -295 -14 -66 -23 -121 -22 -123 2 -1
16 32 31 75 28 79 80 190 132 279 29 50 33 90 7 80 -8 -3 -14 0 -14 7 0 19 58
107 70 107 5 0 10 17 10 39 0 78 136 495 171 524 28 23 36 14 16 -17 -19 -28
-94 -227 -112 -298 -11 -38 -10 -54 0 -85 12 -33 17 -38 44 -37 20 1 28 -2 24
-9 -4 -6 0 -8 10 -4 9 3 19 2 22 -3 3 -4 -7 -13 -22 -18 -26 -8 -25 -10 24
-16 77 -11 75 -26 -4 -26 -74 0 -113 -13 -71 -23 13 -4 51 -9 83 -12 99 -10
180 -34 216 -66 l34 -29 -49 21 c-46 20 -56 21 -130 10 -45 -6 -117 -11 -162
-11 -71 0 -83 -3 -101 -22 -31 -35 -36 -58 -13 -58 24 0 35 -17 22 -33 -10
-12 -69 -174 -96 -266 l-15 -51 27 14 c15 8 56 20 90 27 74 14 71 10 122 177
18 56 34 102 35 102 2 0 10 3 19 6 21 8 15 -57 -18 -170 -14 -49 -24 -91 -23
-93 2 -1 18 2 36 7 36 10 75 -4 101 -35 12 -15 6 -16 -74 -13 -69 2 -89 0 -96
-12 -15 -24 -49 -141 -69 -242 -26 -124 -79 -340 -86 -346 -18 -19 14 220 56
409 18 81 29 154 26 163 -4 10 -18 16 -39 16 -53 0 -78 -11 -92 -39 -19 -35
-68 -218 -103 -376 -15 -71 -29 -119 -31 -105 -6 39 17 206 43 315 13 55 31
132 40 170 9 39 18 79 21 90 2 11 -12 -14 -32 -55 -50 -105 -91 -273 -111
-461 -11 -107 -21 -159 -29 -159 -9 0 -10 10 -3 38 10 44 10 197 -1 232 -7 24
-7 24 -14 -10 -3 -19 -10 -64 -15 -100 -5 -36 -9 -54 -10 -40 -1 24 -2 24 -22
-9 -21 -35 -40 -171 -23 -171 5 0 8 -53 6 -117 -3 -174 -11 -163 111 -164 112
0 110 -17 -3 -19 -78 -1 -140 -14 -151 -32 -5 -7 -9 -37 -9 -65 l0 -53 93 -1
c156 -2 165 -14 17 -22 -74 -5 -148 -9 -164 -10 -40 -3 -46 22 -7 29 30 6 31
8 31 65 0 43 4 60 16 67 12 6 15 17 11 32 -3 13 1 36 8 51 15 27 11 59 -6 59
-12 0 -11 55 2 110 6 25 11 81 11 125 0 53 5 88 14 103 8 12 19 57 24 100 17
131 40 222 66 250 18 20 22 22 17 8 -4 -13 -3 -17 5 -12 16 9 39 132 52 271
30 325 64 524 139 805 27 102 55 211 61 243 12 60 53 120 94 138 30 13 216 5
246 -10z m-102 -466 c11 -13 25 -39 31 -57 7 -18 19 -46 27 -62 13 -26 13 -28
-3 -20 -25 11 -93 7 -109 -7 -8 -6 -14 -18 -14 -25 0 -8 -4 -14 -10 -14 -5 0
-10 11 -10 24 0 13 -6 27 -12 29 -10 4 -10 7 -1 14 7 5 22 35 32 66 31 89 37
93 69 52z m-2484 -1384 c6 -10 24 -40 41 -67 28 -45 75 -196 75 -239 0 -11
-18 34 -41 100 -46 138 -69 175 -96 160 -31 -18 -97 -167 -138 -311 -46 -165
-58 -191 -49 -109 18 173 86 378 150 454 38 43 40 44 58 12z m5048 -13 c48
-37 139 -295 137 -387 0 -26 -8 -8 -29 71 -46 171 -115 319 -141 303 -18 -12
-62 -98 -94 -187 -19 -51 -34 -88 -35 -83 -1 21 40 155 63 207 36 82 64 103
99 76z m-632 -1477 c11 -22 13 -991 2 -991 -37 1 -52 14 -52 47 0 19 5 43 10
54 8 15 7 23 -5 35 -21 21 -21 219 0 289 14 45 14 51 0 61 -13 9 -15 43 -15
207 0 108 4 198 8 201 5 3 8 20 7 38 -3 38 10 78 24 78 6 0 15 -9 21 -19z
m-3766 -7 c4 -9 4 -25 1 -35 -3 -10 1 -28 9 -41 12 -19 14 -56 9 -222 -6 -182
-8 -199 -25 -204 -22 -5 -23 -25 -3 -45 17 -17 25 -200 13 -297 -4 -30 -7 -72
-8 -92 0 -35 -2 -38 -30 -38 -27 0 -30 3 -30 29 0 16 8 37 17 46 15 16 15 20
1 49 -14 27 -15 82 -13 401 4 514 1 465 29 465 13 0 27 -7 30 -16z"/>
<path d="M12726 11543 c-5 -26 -8 -142 -6 -203 1 -14 -6 -39 -14 -55 -20 -38
-20 -75 0 -103 11 -17 25 -22 58 -22 23 0 47 5 54 12 19 19 14 76 -12 116 -19
30 -22 46 -17 77 5 34 0 104 -15 183 -6 33 -41 29 -48 -5z"/>
<path d="M12787 7012 c3 -76 3 -164 -1 -195 l-8 -58 -34 30 c-94 83 -267 60
-373 -49 -179 -183 -127 -543 91 -634 105 -44 222 -24 297 50 24 24 45 44 47
44 2 0 4 -22 4 -50 l0 -50 72 0 71 0 -6 362 c-4 199 -7 435 -7 525 l0 163 -79
0 -79 0 5 -138z m-93 -312 c75 -36 106 -105 106 -235 0 -100 -13 -146 -52
-191 -77 -87 -184 -93 -260 -13 -83 87 -92 285 -18 388 47 67 146 89 224 51z"/>
<path d="M13164 7110 c-58 -24 -70 -95 -25 -141 58 -58 151 -24 151 55 0 64
-69 111 -126 86z"/>
<path d="M6966 6967 c-22 -72 -95 -297 -162 -499 l-122 -368 84 0 83 0 11 38
c5 20 25 84 44 142 l33 105 173 0 173 0 52 -145 53 -145 81 -3 c65 -2 81 0 81
11 0 8 -30 100 -66 203 -36 104 -94 272 -129 374 -34 102 -82 238 -106 303
l-44 117 -100 0 -100 0 -39 -133z m274 -444 c0 -2 -58 -3 -130 -3 -71 0 -130
2 -130 5 0 3 23 75 50 161 28 86 56 179 62 207 l11 52 69 -210 c37 -115 68
-211 68 -212z"/>
<path d="M11160 6600 l0 -500 79 0 79 0 3 33 c2 17 3 242 1 500 l-3 467 -80 0
-79 0 0 -500z"/>
<path d="M7960 6840 c-140 -18 -253 -97 -312 -218 -31 -62 -33 -73 -33 -172 0
-95 3 -111 29 -167 64 -140 203 -213 375 -200 90 7 180 32 187 52 5 12 2 29
-21 102 -3 9 -13 8 -37 -5 -20 -10 -66 -18 -118 -20 -78 -4 -89 -2 -140 25
-45 24 -60 38 -82 83 -51 99 -46 212 11 302 52 82 196 122 307 84 26 -9 51
-16 54 -16 9 0 33 108 26 118 -15 25 -159 43 -246 32z"/>
<path d="M8594 6831 c-42 -19 -85 -66 -102 -111 -8 -21 -11 -14 -17 43 l-7 67
-71 0 -70 0 6 -82 c4 -46 7 -210 7 -364 l0 -282 31 -4 c17 -3 53 -3 80 0 l49
5 0 221 c0 211 1 223 24 271 39 82 87 115 172 115 l44 0 0 70 0 70 -52 0 c-30
0 -71 -9 -94 -19z"/>
<path d="M9043 6826 c-88 -28 -168 -101 -214 -194 -21 -41 -24 -62 -24 -172 0
-118 2 -128 28 -178 42 -79 98 -135 170 -168 53 -25 74 -28 147 -28 113 1 181
28 259 100 88 81 106 129 106 279 0 116 -1 123 -33 187 -43 88 -104 142 -190
168 -74 23 -185 26 -249 6z m184 -117 c42 -16 83 -58 109 -114 29 -62 33 -176
8 -249 -39 -114 -152 -172 -251 -131 -82 34 -124 109 -131 231 -7 124 28 210
102 255 35 21 117 26 163 8z"/>
<path d="M9775 6816 c-64 -30 -93 -58 -117 -114 -15 -34 -19 -57 -15 -94 11
-92 63 -144 194 -193 89 -34 123 -66 123 -117 0 -101 -121 -123 -286 -52 -10
4 -44 -72 -44 -98 0 -5 26 -21 58 -36 79 -36 210 -37 290 -2 109 47 160 153
128 263 -21 72 -67 112 -186 162 -112 46 -145 83 -124 140 17 43 131 59 214
30 23 -8 46 -15 50 -15 4 0 12 25 19 56 11 47 11 58 0 65 -30 19 -88 29 -169
29 -69 0 -95 -5 -135 -24z"/>
<path d="M10387 6826 c-91 -33 -147 -107 -147 -196 0 -101 53 -158 202 -216
108 -43 145 -90 116 -151 -31 -65 -145 -80 -252 -34 -27 12 -50 20 -51 19 -2
-2 -10 -27 -19 -56 l-15 -53 43 -19 c251 -112 507 29 446 244 -21 77 -66 118
-180 166 -131 55 -166 99 -125 157 31 44 87 48 226 17 26 -6 28 -3 38 47 13
59 11 62 -49 79 -50 14 -188 12 -233 -4z"/>
<path d="M11810 6831 c-48 -15 -87 -40 -123 -80 l-36 -40 -7 55 -6 54 -70 0
-71 0 7 -37 c3 -21 6 -183 6 -360 l0 -323 80 0 80 0 0 233 c0 204 3 237 19
272 58 125 214 143 274 31 21 -39 22 -56 25 -288 l4 -248 74 0 75 0 -3 273
c-3 262 -4 274 -27 325 -28 61 -84 114 -140 130 -43 13 -122 14 -161 3z"/>
<path d="M13605 6826 c-71 -18 -124 -43 -131 -60 -4 -11 12 -96 19 -96 1 0 34
11 72 25 147 52 266 13 277 -90 l3 -30 -85 -6 c-226 -16 -346 -108 -344 -264
2 -210 225 -296 390 -150 l52 45 9 -48 8 -47 66 -3 66 -3 -3 183 c-8 337 -9
360 -33 413 -28 64 -45 82 -106 112 -60 31 -182 40 -260 19z m245 -422 c0 -81
-20 -127 -73 -165 -77 -56 -172 -45 -196 22 -24 69 -3 138 53 175 27 17 99 31
174 33 l42 1 0 -66z"/>
<path d="M13125 6460 l0 -360 82 0 82 0 -5 358 -6 357 -76 3 -77 3 0 -361z"/>
</g>
</svg>
